<svg xmlns="http://www.w3.org/2000/svg" xmlns:xlink="http://www.w3.org/1999/xlink" xmlns:lucid="lucid" width="2070.4" height="1352"><g transform="translate(180 10.399999999999999)" lucid:page-tab-id="XavIA7VydR1nC"><path d="M-160 49.6v-40H896v40z" stroke="#000" stroke-width="1.33" fill="#fff"/><path d="M896 49.6v1272H-160V49.6z" stroke="#000" stroke-width="1.33" fill="none"/><use xlink:href="#a" transform="matrix(1,0,0,1,-160,9.600000000000001) translate(488.923828125 26.498779296875)"/><path d="M214.98 90.02l1.02-.42v16.5" stroke="#000" stroke-width="1.33" fill="none"/><path d="M215.1 90.27h-2.5l2.15-.88z" stroke="#000" stroke-width=".05"/><path d="M216 121.04l-4.64-14.27h9.27z" stroke="#000" stroke-width="1.33"/><path d="M191.1 41.6h48v48h-48z" stroke="red" stroke-width="1.33"/><path d="M127.1 121.6h176v80h-176z" stroke="#000" stroke-width="1.33" fill="#fff"/><use xlink:href="#b" transform="matrix(1,0,0,1,147.10399999999998,121.60000000000001) translate(28.58056640625 35.950439453125)"/><use xlink:href="#c" transform="matrix(1,0,0,1,147.10399999999998,121.60000000000001) translate(37.899658203125 57.047119140625)"/><path d="M680 337.33v20.86" stroke="#000" stroke-width="1.33" fill="none"/><path d="M680.67 337.35h-1.34v-.68h1.34z" stroke="#000" stroke-width=".05"/><path d="M680 358.57l-4.63-14.27h9.26z" stroke="#000" stroke-width="1.33"/><path d="M584 240h192v96H584z" stroke="#000" stroke-width="1.33" fill="#fff"/><use xlink:href="#d" transform="matrix(1,0,0,1,604,240) translate(21.27294921875 43.950439453125)"/><use xlink:href="#e" transform="matrix(1,0,0,1,604,240) translate(65.24755859375 43.950439453125)"/><use xlink:href="#f" transform="matrix(1,0,0,1,604,240) translate(20.0205078125 65.047119140625)"/><use xlink:href="#g" transform="matrix(1,0,0,1,604,240) translate(93.9609375 65.047119140625)"/><path d="M584 624h192v96H584z" stroke="#000" stroke-width="1.33" fill="#fff"/><use xlink:href="#h" transform="matrix(1,0,0,1,604,624) translate(34.80859375 33.402099609375)"/><use xlink:href="#i" transform="matrix(1,0,0,1,604,624) translate(95.0185546875 33.402099609375)"/><use xlink:href="#j" transform="matrix(1,0,0,1,604,624) translate(16.31884765625 54.498779296875)"/><use xlink:href="#k" transform="matrix(1,0,0,1,604,624) translate(120.89306640625 54.498779296875)"/><use xlink:href="#g" transform="matrix(1,0,0,1,604,624) translate(56.99072265625 75.595458984375)"/><path d="M364.4 458.27H193.76v-1.34H364.4zm201 0H378.36v-1.34H565.4z" stroke="#000" stroke-width=".05"/><path d="M566.08 457.6l.78.67h-1.47v-1.34h1.46z"/><path d="M566.1 457.6l.83.7h-1.56v-1.4h1.56zm-.68-.64v1.28h1.37l-.76-.64.75-.64z" stroke="#000" stroke-width=".05"/><path d="M193.1 462.24l-14.28-4.64 14.27-4.64z"/><path d="M193.76 463.15l-17.1-5.55 17.1-5.55zm-12.78-5.55l11.44 3.72v-7.44z" stroke="#000" stroke-width=".05"/><use xlink:href="#l" transform="matrix(1,0,0,1,364.3957703040443,446.8) translate(0 14.4)"/><path d="M680 361.6l112.9 96-112.9 96-112.9-96z" stroke="#000" stroke-width="1.33" fill="#fff"/><use xlink:href="#h" transform="matrix(1,0,0,1,567.104,361.6) translate(36.9443359375 91.950439453125)"/><use xlink:href="#m" transform="matrix(1,0,0,1,567.104,361.6) translate(97.154296875 91.950439453125)"/><use xlink:href="#n" transform="matrix(1,0,0,1,567.104,361.6) translate(76.563232421875 113.047119140625)"/><path d="M-17.33 457.6H-48v-392h221.35" stroke="#000" stroke-width="1.33" fill="none"/><path d="M-16.67 458.27h-.68v-1.34h.68z" stroke="#000" stroke-width=".05"/><path d="M188.28 65.6L174 70.24v-9.27z" stroke="#000" stroke-width="1.33"/><path d="M-16 409.6h192v96H-16z" stroke="#000" stroke-width="1.33" fill="#fff"/><use xlink:href="#o" transform="matrix(1,0,0,1,4,409.6) translate(45.3662109375 54.498779296875)"/><path d="M-1.33 1104H-80V65.6h253.35" stroke="#000" stroke-width="1.33" fill="none"/><path d="M-.67 1104.67h-.68v-1.34h.68z" stroke="#000" stroke-width=".05"/><path d="M188.28 65.6L174 70.24v-9.27z" stroke="#000" stroke-width="1.33"/><path d="M0 1056h192v96H0z" stroke="#000" stroke-width="1.33" fill="#fff"/><use xlink:href="#p" transform="matrix(1,0,0,1,20,1056) translate(4.70361328125 54.498779296875)"/><use xlink:href="#c" transform="matrix(1,0,0,1,20,1056) translate(87.095703125 54.498779296875)"/><path d="M584 896h199.1v112H584z" stroke="#000" stroke-width="1.33" fill="#fff"/><use xlink:href="#q" transform="matrix(1,0,0,1,604,896) translate(20.342041015625 30.853759765625)"/><use xlink:href="#r" transform="matrix(1,0,0,1,604,896) translate(54.120849609375 30.853759765625)"/><use xlink:href="#s" transform="matrix(1,0,0,1,604,896) translate(104.821533203125 30.853759765625)"/><use xlink:href="#t" transform="matrix(1,0,0,1,604,896) translate(26.1357421875 51.950439453125)"/><use xlink:href="#u" transform="matrix(1,0,0,1,604,896) translate(113.81591796875 51.950439453125)"/><use xlink:href="#v" transform="matrix(1,0,0,1,604,896) translate(5.006591796875 73.047119140625)"/><use xlink:href="#w" transform="matrix(1,0,0,1,604,896) translate(94.792724609375 73.047119140625)"/><use xlink:href="#x" transform="matrix(1,0,0,1,604,896) translate(38.79931640625 94.143798828125)"/><path d="M896 49.6v-40h974.4v40z" stroke="#000" stroke-width="1.33" fill="#fff"/><path d="M1870.4 49.6v1272H896V49.6z" stroke="#000" stroke-width="1.33" fill="none"/><use xlink:href="#y" transform="matrix(1,0,0,1,896,9.600000000000001) translate(449.476806640625 26.498779296875)"/><path d="M1416 630.67V470.4l182.24-.04" stroke="#000" stroke-width="1.33" fill="none"/><path d="M1416.67 631.33h-1.34v-.68h1.34z" stroke="#000" stroke-width=".05"/><path d="M1613.18 470.36L1598.9 475v-9.28z" stroke="#000" stroke-width="1.33"/><path d="M1328 632h176v80h-176z" stroke="#000" stroke-width="1.33" fill="#fff"/><use xlink:href="#z" transform="matrix(1,0,0,1,1348,632) translate(10.962890625 35.950439453125)"/><use xlink:href="#A" transform="matrix(1,0,0,1,1348,632) translate(82.76953125 35.950439453125)"/><use xlink:href="#B" transform="matrix(1,0,0,1,1348,632) translate(29.9814453125 57.047119140625)"/><use xlink:href="#C" transform="matrix(1,0,0,1,1348,632) translate(84.884765625 57.047119140625)"/><path d="M1712 524.53v33.7" stroke="#000" stroke-width="1.33" fill="none"/><path d="M1712.67 524.55h-1.34v-.68h1.34z" stroke="#000" stroke-width=".05"/><path d="M1712 573.18l-4.63-14.27h9.27z" stroke="#000" stroke-width="1.33"/><path d="M1616 416h192v107.2h-192z" stroke="#000" stroke-width="1.33" fill="#fff"/><use xlink:href="#D" transform="matrix(1,0,0,1,1636,416) translate(1.02978515625 49.950439453125)"/><use xlink:href="#E" transform="matrix(1,0,0,1,1636,416) translate(67.5576171875 49.950439453125)"/><use xlink:href="#F" transform="matrix(1,0,0,1,1636,416) translate(122.4609375 49.950439453125)"/><use xlink:href="#G" transform="matrix(1,0,0,1,1636,416) translate(9.47216796875 71.047119140625)"/><use xlink:href="#H" transform="matrix(1,0,0,1,1636,416) translate(40.078125 71.047119140625)"/><use xlink:href="#I" transform="matrix(1,0,0,1,1636,416) translate(75.9814453125 71.047119140625)"/><path d="M1616 576h192v107.2h-192z" stroke="#000" stroke-width="1.33" fill="#fff"/><use xlink:href="#q" transform="matrix(1,0,0,1,1636,576) translate(16.342041015625 49.950439453125)"/><use xlink:href="#r" transform="matrix(1,0,0,1,1636,576) translate(50.120849609375 49.950439453125)"/><use xlink:href="#J" transform="matrix(1,0,0,1,1636,576) translate(100.821533203125 49.950439453125)"/><use xlink:href="#K" transform="matrix(1,0,0,1,1636,576) translate(48.01953125 71.047119140625)"/><path d="M1289.55 672.67h-22.06v-1.34h22.05zm20.7 0h-6.75v-1.34h6.74z" stroke="#000" stroke-width=".05"/><path d="M1267.5 672.67h-1.46l.78-.67-.78-.67h1.47z"/><path d="M1267.53 672.7h-1.56l.8-.7-.8-.7h1.56zm-1.42-1.34l.76.64-.75.64h1.38v-1.28z" stroke="#000" stroke-width=".05"/><path d="M1325.18 672l-14.27 4.63v-9.26z"/><path d="M1327.33 672l-17.1 5.55v-11.1zm-15.75 3.72l11.44-3.72-11.44-3.72z" stroke="#000" stroke-width=".05"/><use xlink:href="#l" transform="matrix(1,0,0,1,1289.5477703040442,661.2) translate(0 14.4)"/><path d="M1152.9 576l112.9 96-112.9 96-112.9-96z" stroke="#000" stroke-width="1.33" fill="#fff"/><use xlink:href="#L" transform="matrix(1,0,0,1,1040,576) translate(24.271484375 102.498779296875)"/><use xlink:href="#M" transform="matrix(1,0,0,1,1040,576) translate(98.2119140625 102.498779296875)"/><path d="M1376 992l128 112-128 112-128-112z" stroke="#000" stroke-width="1.33" fill="#fff"/><use xlink:href="#N" transform="matrix(1,0,0,1,1248,992) translate(29.785400390625 107.950439453125)"/><use xlink:href="#O" transform="matrix(1,0,0,1,1248,992) translate(124.831787109375 107.950439453125)"/><use xlink:href="#P" transform="matrix(1,0,0,1,1248,992) translate(151.244384765625 107.950439453125)"/><use xlink:href="#Q" transform="matrix(1,0,0,1,1248,992) translate(46.14599609375 129.047119140625)"/><use xlink:href="#R" transform="matrix(1,0,0,1,1248,992) translate(158.10498046875 129.047119140625)"/><path d="M1536.67 1120.7l-30.65-1.28.05-1.34 29.26 1.23v-5.13h1.34zm-17.64-23.18l-13.12 6.77-.6-1.2 13.73-7.08zm17.64-4.95h-1.34v-3.47l-6.72 3.47h-2.9l10.97-5.66z" stroke="#000" stroke-width=".05"/><path d="M1505.93 1104.28l-3 1.55 2.08-1.83-.53-.47.84-.44z"/><path d="M1505.96 1104.3l-3.2 1.65 2.2-1.95-.53-.48.9-.46zm-1.44-.77l.53.47-1.96 1.7 2.8-1.43-.6-1.14z" stroke="#000" stroke-width=".05"/><path d="M1505.2 1123.35l-14.07-5.22 14.44-4.04z"/><path d="M1505.8 1124.3l-16.83-6.26 17.3-4.84zm-12.52-6.08l11.28 4.2.3-7.44z" stroke="#000" stroke-width=".05"/><use xlink:href="#S" transform="matrix(1,0,0,1,1519.025,1092.5687898230879) translate(0 14.4)"/><path d="M1312 210.93v30.67V216v14.24" stroke="#000" stroke-width="1.33" fill="none"/><path d="M1312.67 210.95h-1.34v-.68h1.34z" stroke="#000" stroke-width=".05"/><path d="M1312 245.18l-4.63-14.27h9.27z" stroke="#000" stroke-width="1.33"/><path d="M1216 113.6h192v96h-192z" stroke="#000" stroke-width="1.33" fill="#fff"/><use xlink:href="#T" transform="matrix(1,0,0,1,1236,113.60000000000001) translate(7.35693359375 43.950439453125)"/><use xlink:href="#U" transform="matrix(1,0,0,1,1236,113.60000000000001) translate(39.04833984375 43.950439453125)"/><use xlink:href="#V" transform="matrix(1,0,0,1,1236,113.60000000000001) translate(101.35498046875 43.950439453125)"/><use xlink:href="#W" transform="matrix(1,0,0,1,1236,113.60000000000001) translate(42.7314453125 65.047119140625)"/><use xlink:href="#X" transform="matrix(1,0,0,1,1236,113.60000000000001) translate(78.64404296875 65.047119140625)"/><path d="M1224 248h176v80h-176z" stroke="#000" stroke-width="1.33" fill="#fff"/><use xlink:href="#Y" transform="matrix(1,0,0,1,1244,248) translate(0.9248046875 35.950439453125)"/><use xlink:href="#Z" transform="matrix(1,0,0,1,1244,248) translate(120.287109375 35.950439453125)"/><use xlink:href="#aa" transform="matrix(1,0,0,1,1244,248) translate(5.693359375 57.047119140625)"/><use xlink:href="#ab" transform="matrix(1,0,0,1,1244,248) translate(45.81787109375 57.047119140625)"/><path d="M1309.3 458.27h-105.8v-1.34h105.8zm131.37 0h-117.4v-1.34h116.06V162.27h-13.57v-1.34h14.9z" stroke="#000" stroke-width=".05"/><path d="M1203.5 458.27h-1.46l.78-.67-.78-.67h1.47z"/><path d="M1203.53 458.3h-1.56l.8-.7-.8-.7h1.56zm-1.42-1.34l.76.64-.75.64h1.38v-1.28z" stroke="#000" stroke-width=".05"/><path d="M1425.1 166.24l-14.28-4.64 14.27-4.63z"/><path d="M1425.76 167.15l-17.1-5.55 17.1-5.55zm-12.78-5.55l11.44 3.72v-7.44z" stroke="#000" stroke-width=".05"/><use xlink:href="#l" transform="matrix(1,0,0,1,1309.3084666689015,446.8) translate(0 14.4)"/><path d="M1088.9 361.6l112.9 96-112.9 96-112.9-96z" stroke="#000" stroke-width="1.33" fill="#fff"/><use xlink:href="#ac" transform="matrix(1,0,0,1,976,361.6) translate(33.623046875 91.950439453125)"/><use xlink:href="#ad" transform="matrix(1,0,0,1,976,361.6) translate(99.4365234375 91.950439453125)"/><use xlink:href="#ae" transform="matrix(1,0,0,1,976,361.6) translate(131.1279296875 91.950439453125)"/><use xlink:href="#af" transform="matrix(1,0,0,1,976,361.6) translate(53.31884765625 113.047119140625)"/><path d="M1173.5 162.27h-27.86v-1.34h27.87zm24.74 0h-10.78v-1.34h10.78z" stroke="#000" stroke-width=".05"/><path d="M1145.66 162.27h-1.4l.7-.67-.7-.67h1.4z"/><path d="M1145.68 162.3h-1.48l.74-.7-.74-.7h1.48zm-1.35-1.34l.68.64-.67.64h1.3v-1.28z" stroke="#000" stroke-width=".05"/><path d="M1213.18 161.6l-14.27 4.64v-9.28z"/><path d="M1215.33 161.6l-17.1 5.55v-11.1zm-15.75 3.72l11.44-3.72-11.44-3.72z" stroke="#000" stroke-width=".05"/><path d="M1052 75.2l92 86.4-92 86.4-92-86.4z" stroke="#000" stroke-width="1.33" fill="#fff"/><use xlink:href="#ag" transform="matrix(1,0,0,1,960,75.2) translate(34.958251953125 82.450439453125)"/><use xlink:href="#ah" transform="matrix(1,0,0,1,960,75.2) translate(46.58740234375 103.547119140625)"/><path d="M1173.5 162.6h-27.53v-2h27.54zm24 0h-10.04v-2h10.04z" stroke="#000" stroke-width=".05"/><path d="M1146 162.6h-2.1l1.07-1-1.06-1h2.1z"/><path d="M1146.02 162.63h-2.17l1.1-1.03-1.1-1.03h2.17zm-2.05-2l1.04.97-1.03.97h2v-1.94z" stroke="#000" stroke-width=".05"/><path d="M1212.76 161.6l-14.26 4.64v-9.28z"/><path d="M1216 161.6l-18.5 6v-12zm-16.5 3.26l10.03-3.26-10.03-3.26z" stroke="#000" stroke-width=".05"/><use xlink:href="#l" transform="matrix(1,0,0,1,1173.5119212336313,150.8) translate(0 14.4)"/><path d="M777.33 672h244.55" stroke="#000" stroke-width="1.33" fill="none"/><path d="M777.35 672.67h-.68v-1.34h.68z" stroke="#000" stroke-width=".05"/><path d="M1036.8 672l-14.25 4.63v-9.26z" stroke="#000" stroke-width="1.33"/><path d="M80.67 799.33h887.8v1.34H79.33v-277.3h1.34zm1073.6 1.34h-151.85v-1.34h150.5v-30.37h1.32z" stroke="#000" stroke-width=".05"/><path d="M1154.24 768.98h-1.33v-.12l1.34-1.13z"/><path d="M1154.27 769h-1.4v-.15l1.4-1.17zm-1.34-.13v.1h1.3v-1.2z" stroke="#000" stroke-width=".05"/><path d="M84.64 522.7h-9.28L80 508.4z"/><path d="M85.55 523.36h-11.1l5.55-17.1zm-9.27-1.34h7.44L80 510.58z" stroke="#000" stroke-width=".05"/><g><use xlink:href="#S" transform="matrix(1,0,0,1,968.4719542022207,789.2) translate(0 14.4)"/></g><path d="M712.85 1104.67h-503.1v-1.34h503.1zm533.47 0H726.8v-1.34h519.52z" stroke="#000" stroke-width=".05"/><path d="M1247 1104l.75.67h-1.45v-1.34h1.45z"/><path d="M1247.03 1104l.8.7h-1.55v-1.4h1.54zm-.7-.64v1.28h1.35l-.73-.64.73-.64z" stroke="#000" stroke-width=".05"/><path d="M209.1 1108.63L194.8 1104l14.27-4.63z"/><path d="M209.76 1109.55l-17.1-5.55 17.1-5.55zm-12.78-5.55l11.44 3.72v-7.44z" stroke="#000" stroke-width=".05"/><g><use xlink:href="#l" transform="matrix(1,0,0,1,712.8521359136793,1093.2) translate(0 14.4)"/></g><path d="M963.25 589.47H680.67v16.77h-1.34v-18.1h283.92zm127.02 0H997.2v-1.34h91.73l-.02-33.57h1.34z" stroke="#000" stroke-width=".05"/><path d="M1090.24 554.58h-1.33v-.12l1.34-1.13z"/><path d="M1090.27 554.6h-1.4v-.15l1.4-1.17zm-1.34-.13v.1h1.3v-1.2z" stroke="#000" stroke-width=".05"/><path d="M680 621.18l-4.63-14.27h9.26z"/><path d="M680 623.33l-5.55-17.1h11.1zm-3.72-15.75l3.72 11.44 3.72-11.44z" stroke="#000" stroke-width=".05"/><g><use xlink:href="#S" transform="matrix(1,0,0,1,963.2482197948519,578) translate(0 14.4)"/></g><path d="M867.47 458.27H794.6v-1.34h72.87zm90.4 0h-56.45v-1.34h56.46z" stroke="#000" stroke-width=".05"/><path d="M794.6 458.27h-1.46l.78-.67-.78-.67h1.47z"/><path d="M794.63 458.3h-1.56l.82-.7-.83-.7h1.56zm-1.42-1.34l.76.64-.75.64h1.38v-1.28z" stroke="#000" stroke-width=".05"/><path d="M972.8 457.6l-14.25 4.63v-9.27z"/><path d="M974.97 457.6l-17.1 5.55v-11.1zm-15.76 3.72l11.46-3.72-11.45-3.72z" stroke="#000" stroke-width=".05"/><g><use xlink:href="#S" transform="matrix(1,0,0,1,867.4730000000001,446.8) translate(0 14.4)"/></g><path d="M782.97 952H1376v22.02M783 952h-3.7" stroke="#000" stroke-width="1.33" fill="none"/><path d="M1376 988.96l-4.63-14.27h9.27z" stroke="#000" stroke-width="1.33"/><path d="M303.07 161.6h638.87M303.08 161.6h-3.68" stroke="#000" stroke-width="1.33" fill="none"/><path d="M956.87 161.6l-14.27 4.64v-9.28z" stroke="#000" stroke-width="1.33"/><path d="M1222.67 288h-428.9" stroke="#000" stroke-width="1.33" fill="none"/><path d="M1223.33 288.67h-.68v-1.34h.68z" stroke="#000" stroke-width=".05"/><path d="M778.82 288l14.27-4.63v9.26z" stroke="#000" stroke-width="1.33"/><path d="M1712.67 848.67H683.87l-.04 29.57h-1.33l.03-30.9h1028.8v-162.8h1.34z" stroke="#000" stroke-width=".05"/><path d="M1712.67 684.55h-1.34v-.68h1.34z"/><path d="M1712.7 684.58h-1.4v-.74h1.4zm-1.34-.7v.64h1.28v-.63z" stroke="#000" stroke-width=".05"/><path d="M687.8 878.9l-4.65 14.28-4.62-14.27z"/><path d="M688.72 878.25l-5.57 17.08-5.53-17.1zm-5.57 12.77l3.73-11.44h-7.43zM731.66 75.82l-91 .05v22.4H213.74V82.7h1.34v14.23h424.26v-22.4l92.33-.05zm320.4-.17l-286.45.15v-1.33l286.47-.16z" stroke="#000" stroke-width=".05"/><path d="M1055.74 75.64h-2.3l-1.4-1.3 3.7-.03z"/><path d="M1055.76 75.67h-2.32L1052 74.3l3.76-.02zm-3.64-1.3l1.34 1.25h2.25v-1.3z" stroke="#000" stroke-width=".05"/><path d="M219.03 82.02h-9.27l4.64-14.26z"/><path d="M219.95 82.7h-11.1l5.55-17.1zm-9.27-1.34h7.44l-3.72-11.44z" stroke="#000" stroke-width=".05"/><g><use xlink:href="#S" transform="matrix(1,0,0,1,731.6634282631081,64.3416737679922) translate(0 14.4)"/></g><defs><path d="M359-1253v524h786v158H359V0H168v-1409h1001v156H359" id="ai"/><path d="M318-861c55-157 83-241 257-241 24 0 48 3 73 10v165c-24-7-56-10-96-10-75 0-132 33-171 97s-59 156-59 276V0H142c-3-364 6-725-6-1082h170c5 123 8 196 8 221h4" id="aj"/><path d="M571-1102c350 0 480 196 482 560 2 357-151 562-488 562C233 20 86-198 86-542c0-373 162-560 485-560zm-8 989c244 0 301-164 301-429 0-266-49-427-290-427-239 0-299 165-299 427 0 252 61 429 288 429" id="ak"/><path d="M663-1102c251 0 343 119 343 381V0H825v-686c0-183-40-279-223-277-184 2-280 141-280 336V0H142c-3-345 6-754-6-1082h170c5 68 6 94 8 185h3c76-134 157-205 346-205" id="al"/><path d="M336-268c2 98 22 139 114 141 24 0 59-5 104-14V-8C495 8 434 16 372 16c-144 0-216-82-216-245v-722H31v-131h132l53-242h120v242h200v131H336v683" id="am"/><path d="M168 0v-1409h1069v156H359v452h818v154H359v491h919V0H168" id="an"/><path d="M835 0c-5-29-11-137-10-174h-4C759-45 663 20 484 20 177 20 86-201 86-536c0-377 133-566 398-566 178 1 273 67 339 188-4-187-1-380-2-570h180v1261c0 113 2 187 6 223H835zm-14-554c0-255-58-415-289-415-91 0-151 37-196 101-76 109-77 543-1 651 44 63 105 98 195 98 235 0 291-173 291-435" id="ao"/><g id="a"><use transform="matrix(0.00927734375,0,0,0.00927734375,0,0)" xlink:href="#ai"/><use transform="matrix(0.00927734375,0,0,0.00927734375,11.60595703125,0)" xlink:href="#aj"/><use transform="matrix(0.00927734375,0,0,0.00927734375,17.93310546875,0)" xlink:href="#ak"/><use transform="matrix(0.00927734375,0,0,0.00927734375,28.5,0)" xlink:href="#al"/><use transform="matrix(0.00927734375,0,0,0.00927734375,39.06689453125,0)" xlink:href="#am"/><use transform="matrix(0.00927734375,0,0,0.00927734375,44.345703125,0)" xlink:href="#an"/><use transform="matrix(0.00927734375,0,0,0.00927734375,57.0185546875,0)" xlink:href="#al"/><use transform="matrix(0.00927734375,0,0,0.00927734375,67.58544921875,0)" xlink:href="#ao"/></g><path d="M544-168c91-408 108-428 333-1241h183c108 399 243 834 333 1241 89-385 93-366 334-1241h199L1511 0h-228c-108-419-218-753-314-1196C893-847 877-832 652 0H424L9-1409h199C320-995 449-600 544-168" id="ap"/><path d="M87-548c0-338 159-553 484-554 325-2 484 204 477 599H276c-1 227 88 385 302 388 146 2 246-65 283-166l158 45C954-65 807 20 578 20 240 20 87-193 87-548zm775-93c-19-206-90-328-294-328-185 0-285 140-290 328h584" id="aq"/><path d="M138 0v-1484h180V0H138" id="ar"/><path d="M779-765c-19-119-93-196-233-196-95 0-164 32-207 95s-64 170-64 320c0 144 23 251 68 320s114 104 205 104c139 0 224-79 240-212l182 12C946-119 781 22 553 20 230 17 87-201 87-542c0-338 145-557 464-560 225-1 380 129 413 323" id="as"/><path d="M1195-963c-175 0-249 144-249 336V0H768v-686c-5-190-26-277-198-277-171 0-249 147-249 336V0H142c-3-345 6-754-6-1082h170c5 68 6 94 8 185h3c69-134 140-205 316-205 171 0 257 66 294 205h3c67-129 152-205 328-205 238 0 313 127 313 381V0h-178v-686c-5-190-26-277-198-277" id="at"/><g id="b"><use transform="matrix(0.00927734375,0,0,0.00927734375,0,0)" xlink:href="#ap"/><use transform="matrix(0.00927734375,0,0,0.00927734375,17.58984375,0)" xlink:href="#aq"/><use transform="matrix(0.00927734375,0,0,0.00927734375,28.15673828125,0)" xlink:href="#ar"/><use transform="matrix(0.00927734375,0,0,0.00927734375,32.3779296875,0)" xlink:href="#as"/><use transform="matrix(0.00927734375,0,0,0.00927734375,41.8779296875,0)" xlink:href="#ak"/><use transform="matrix(0.00927734375,0,0,0.00927734375,52.44482421875,0)" xlink:href="#at"/><use transform="matrix(0.00927734375,0,0,0.00927734375,68.27197265625,0)" xlink:href="#aq"/></g><path d="M692-1286c-195 0-347 51-347 223 0 101 58 144 134 179 135 62 487 105 623 191 97 62 170 147 170 304 0 130-50 231-152 302S875 20 690 20C347 20 148-99 93-338l185-37c46 178 190 245 419 246 213 0 386-61 386-250 0-223-244-222-431-271-182-48-288-69-390-156-64-54-103-133-103-247 0-121 47-214 139-279s224-98 396-98c318 0 471 80 545 324l-188 33c-44-155-158-213-359-213" id="au"/><g id="c"><use transform="matrix(0.00927734375,0,0,0.00927734375,0,0)" xlink:href="#au"/><use transform="matrix(0.00927734375,0,0,0.00927734375,12.6728515625,0)" xlink:href="#as"/><use transform="matrix(0.00927734375,0,0,0.00927734375,22.1728515625,0)" xlink:href="#aj"/><use transform="matrix(0.00927734375,0,0,0.00927734375,28.5,0)" xlink:href="#aq"/><use transform="matrix(0.00927734375,0,0,0.00927734375,39.06689453125,0)" xlink:href="#aq"/><use transform="matrix(0.00927734375,0,0,0.00927734375,49.6337890625,0)" xlink:href="#al"/></g><path d="M1167 0l-161-412H364L202 0H4l575-1409h217L1362 0h-195zM685-1265c-69 226-179 482-263 704h527c-89-236-186-456-264-704" id="av"/><path d="M720-1253V0H530v-1253H46v-156h1158v156H720" id="aw"/><path d="M1366 0c4-412-9-843 9-1240-33 119-62 213-88 280L923 0H789L420-960c-31-92-62-184-89-280 13 403 5 827 7 1240H168v-1409h251l375 977c20 57 51 168 63 224 5-34 58-197 68-224l368-977h245V0h-172" id="ax"/><g id="d"><use transform="matrix(0.00927734375,0,0,0.00927734375,0,0)" xlink:href="#av"/><use transform="matrix(0.00927734375,0,0,0.00927734375,11.2626953125,0)" xlink:href="#aw"/><use transform="matrix(0.00927734375,0,0,0.00927734375,22.86865234375,0)" xlink:href="#ax"/></g><path d="M187-875v-207h195v207H187zm0 875v-207h195V0H187" id="ay"/><g id="e"><use transform="matrix(0.00927734375,0,0,0.00927734375,0,0)" xlink:href="#au"/><use transform="matrix(0.00927734375,0,0,0.00927734375,12.6728515625,0)" xlink:href="#as"/><use transform="matrix(0.00927734375,0,0,0.00927734375,22.1728515625,0)" xlink:href="#aj"/><use transform="matrix(0.00927734375,0,0,0.00927734375,28.5,0)" xlink:href="#aq"/><use transform="matrix(0.00927734375,0,0,0.00927734375,39.06689453125,0)" xlink:href="#aq"/><use transform="matrix(0.00927734375,0,0,0.00927734375,49.6337890625,0)" xlink:href="#al"/><use transform="matrix(0.00927734375,0,0,0.00927734375,60.20068359375,0)" xlink:href="#ay"/></g><path d="M83 0v-137l605-806H117v-139h784v137L295-139h627V0H83" id="az"/><path d="M137-1312v-172h180v172H137zM137 0v-1082h180V0H137" id="aA"/><path d="M824-897c-1-17 6-175 12-185h171c-12 319-6 716-6 1051 0 304-151 456-453 456-226 0-374-90-417-267l181-26c24 102 112 157 241 156 179 0 269-105 269-315 0-57 3-120-2-174C759-74 647 8 472 8 339 8 242-36 180-124S86-350 86-539c0-191 33-332 100-423s169-137 306-137c167 0 273 85 332 202zm-38 579c48-119 46-331 0-450-42-108-118-197-250-197-92 0-154 37-201 100-78 107-74 530-4 643 63 101 251 129 353 47 43-35 77-81 102-143" id="aB"/><g id="f"><use transform="matrix(0.00927734375,0,0,0.00927734375,0,0)" xlink:href="#av"/><use transform="matrix(0.00927734375,0,0,0.00927734375,12.6728515625,0)" xlink:href="#al"/><use transform="matrix(0.00927734375,0,0,0.00927734375,23.23974609375,0)" xlink:href="#az"/><use transform="matrix(0.00927734375,0,0,0.00927734375,32.73974609375,0)" xlink:href="#aq"/><use transform="matrix(0.00927734375,0,0,0.00927734375,43.306640625,0)" xlink:href="#aA"/><use transform="matrix(0.00927734375,0,0,0.00927734375,47.52783203125,0)" xlink:href="#aB"/><use transform="matrix(0.00927734375,0,0,0.00927734375,58.0947265625,0)" xlink:href="#aq"/></g><path d="M797-207C713-60 620 16 414 20 203 24 88-98 87-302c0-112 37-198 111-258s192-93 356-96l243-4c10-201-43-307-232-305-154 2-223 43-242 172l-188-17c31-195 175-292 434-292s410 116 410 364v466c3 95 12 159 101 161 17 0 37-2 59-7V-6c-45 11-92 16-139 16-143-2-188-76-197-217h-6zm-525-92c-1 116 66 187 183 184 230-7 361-164 342-419-124 5-305-2-389 30-83 32-136 92-136 205" id="aC"/><path d="M513-963c-139 1-238 29-238 149 0 72 41 100 95 127 55 27 348 94 404 125 101 56 176 118 176 263C950-73 758 21 511 20 254 19 107-55 57-254l159-31c34 123 133 168 295 168 156 0 264-34 264-168 0-156-183-165-315-204-171-51-245-68-323-172-26-35-37-82-37-135 0-220 172-304 413-303 232 1 379 74 418 265l-162 20c-23-104-122-150-256-149" id="aD"/><g id="g"><use transform="matrix(0.00927734375,0,0,0.00927734375,0,0)" xlink:href="#au"/><use transform="matrix(0.00927734375,0,0,0.00927734375,12.6728515625,0)" xlink:href="#aC"/><use transform="matrix(0.00927734375,0,0,0.00927734375,23.23974609375,0)" xlink:href="#am"/><use transform="matrix(0.00927734375,0,0,0.00927734375,28.5185546875,0)" xlink:href="#aD"/></g><path d="M908-743c202 21 350 139 350 346 0 273-224 397-518 397H168v-1409h512c331 0 496 114 496 342 0 180-112 291-268 324zm-228-67c187 0 301-60 304-234 6-277-360-200-625-212v446h321zm50 657c212 0 335-66 335-259 0-166-117-249-350-249H359v508h371" id="aE"/><path d="M476 20C225 20 133-99 133-361v-721h181v686c0 183 40 279 223 277 184-2 280-141 280-336v-627h180c3 345-6 754 6 1082H833c-5-68-6-94-8-185h-3C746-51 665 20 476 20" id="aF"/><g id="h"><use transform="matrix(0.00927734375,0,0,0.00927734375,0,0)" xlink:href="#aE"/><use transform="matrix(0.00927734375,0,0,0.00927734375,12.6728515625,0)" xlink:href="#aF"/><use transform="matrix(0.00927734375,0,0,0.00927734375,23.23974609375,0)" xlink:href="#am"/><use transform="matrix(0.00927734375,0,0,0.00927734375,28.5185546875,0)" xlink:href="#am"/><use transform="matrix(0.00927734375,0,0,0.00927734375,33.79736328125,0)" xlink:href="#ak"/><use transform="matrix(0.00927734375,0,0,0.00927734375,44.3642578125,0)" xlink:href="#al"/></g><path d="M492-1341c-103 3-130 49-131 162v97h211v131H361V0H181v-951H29v-131h152v-122c0-192 78-276 264-278 50 0 92 4 127 12v137c-30-5-57-8-80-8" id="aG"/><path d="M482 20C231 20 139-99 139-361v-721h181v686c0 183 40 279 223 277 184-2 280-141 280-336v-627h180c3 345-6 754 6 1082H839c-5-68-6-94-8-185h-3C752-51 671 20 482 20zm194-1239v-184h163v184H676zm-394 0v-184h165v184H282" id="aH"/><g id="i"><use transform="matrix(0.00927734375,0,0,0.00927734375,0,0)" xlink:href="#aG"/><use transform="matrix(0.00927734375,0,0,0.00927734375,5.27880859375,0)" xlink:href="#aH"/><use transform="matrix(0.00927734375,0,0,0.00927734375,15.845703125,0)" xlink:href="#aj"/></g><path d="M322-1484c-2 195 6 405-8 587h3c73-129 159-205 346-205 250 0 342 118 343 381V0H825v-686c3-190-43-277-223-277-176-1-280 140-280 325V0H142v-1484h180" id="aI"/><g id="j"><use transform="matrix(0.00927734375,0,0,0.00927734375,0,0)" xlink:href="#av"/><use transform="matrix(0.00927734375,0,0,0.00927734375,12.6728515625,0)" xlink:href="#aF"/><use transform="matrix(0.00927734375,0,0,0.00927734375,23.23974609375,0)" xlink:href="#aD"/><use transform="matrix(0.00927734375,0,0,0.00927734375,32.73974609375,0)" xlink:href="#az"/><use transform="matrix(0.00927734375,0,0,0.00927734375,42.23974609375,0)" xlink:href="#aC"/><use transform="matrix(0.00927734375,0,0,0.00927734375,52.806640625,0)" xlink:href="#aI"/><use transform="matrix(0.00927734375,0,0,0.00927734375,63.37353515625,0)" xlink:href="#ar"/><use transform="matrix(0.00927734375,0,0,0.00927734375,67.5947265625,0)" xlink:href="#aF"/><use transform="matrix(0.00927734375,0,0,0.00927734375,78.16162109375,0)" xlink:href="#al"/><use transform="matrix(0.00927734375,0,0,0.00927734375,88.728515625,0)" xlink:href="#aB"/></g><g id="k"><use transform="matrix(0.00927734375,0,0,0.00927734375,0,0)" xlink:href="#aA"/><use transform="matrix(0.00927734375,0,0,0.00927734375,4.22119140625,0)" xlink:href="#al"/></g><path d="M24-231v-30h32v30H24zM-9 49c24 4 33-6 33-30v-209h32V24c2 40-23 58-65 49V49" id="aJ"/><path d="M141-36C126-15 110 5 73 4 37 3 15-17 15-53c-1-64 63-63 125-63 3-35-9-54-41-54-24 1-41 7-42 31l-33-3c5-37 33-52 76-52 45 0 72 20 72 64v82c-1 20 7 32 28 27v20c-31 9-61-2-59-35zM48-53c0 20 12 33 32 33 41-3 63-29 60-74-43 2-92-5-92 41" id="aK"/><g id="l"><use transform="matrix(0.05,0,0,0.05,0,0)" xlink:href="#aJ"/><use transform="matrix(0.05,0,0,0.05,3.95,0)" xlink:href="#aK"/></g><path d="M655-1102c307 0 398 221 398 556 0 377-133 566-398 566-180 0-272-66-339-188 1 22-7 151-10 168H132c4-36 6-110 6-223v-1261h180c-2 196 4 384-4 576h4c62-129 158-194 337-194zM318-529c0 254 57 416 289 416 91 0 152-37 197-101 76-109 76-543 0-651-44-63-105-98-195-98-236 0-291 169-291 434" id="aL"/><g id="m"><use transform="matrix(0.00927734375,0,0,0.00927734375,0,0)" xlink:href="#av"/><use transform="matrix(0.00927734375,0,0,0.00927734375,12.6728515625,0)" xlink:href="#aL"/><use transform="matrix(0.00927734375,0,0,0.00927734375,23.23974609375,0)" xlink:href="#aL"/><use transform="matrix(0.00927734375,0,0,0.00927734375,33.806640625,0)" xlink:href="#aj"/><use transform="matrix(0.00927734375,0,0,0.00927734375,40.1337890625,0)" xlink:href="#aq"/><use transform="matrix(0.00927734375,0,0,0.00927734375,50.70068359375,0)" xlink:href="#as"/><use transform="matrix(0.00927734375,0,0,0.00927734375,60.20068359375,0)" xlink:href="#aI"/><use transform="matrix(0.00927734375,0,0,0.00927734375,70.767578125,0)" xlink:href="#aq"/><use transform="matrix(0.00927734375,0,0,0.00927734375,81.33447265625,0)" xlink:href="#al"/></g><path d="M816 0L450-494 318-385V0H138v-1484h180v927l475-525h211L565-617 1027 0H816" id="aM"/><g id="n"><use transform="matrix(0.00927734375,0,0,0.00927734375,0,0)" xlink:href="#aB"/><use transform="matrix(0.00927734375,0,0,0.00927734375,10.56689453125,0)" xlink:href="#aq"/><use transform="matrix(0.00927734375,0,0,0.00927734375,21.1337890625,0)" xlink:href="#ao"/><use transform="matrix(0.00927734375,0,0,0.00927734375,31.70068359375,0)" xlink:href="#aj"/><use transform="matrix(0.00927734375,0,0,0.00927734375,38.02783203125,0)" xlink:href="#aH"/><use transform="matrix(0.00927734375,0,0,0.00927734375,48.5947265625,0)" xlink:href="#as"/><use transform="matrix(0.00927734375,0,0,0.00927734375,58.0947265625,0)" xlink:href="#aM"/><use transform="matrix(0.00927734375,0,0,0.00927734375,67.5947265625,0)" xlink:href="#am"/></g><path d="M1328-1006c0 221-145 368-344 399L1384 0h-220L798-585H359V0H168v-1409h663c292-4 497 130 497 403zM820-736c188 2 316-89 316-268s-133-252-324-252H359v520h461" id="aN"/><g id="o"><use transform="matrix(0.00927734375,0,0,0.00927734375,0,0)" xlink:href="#aN"/><use transform="matrix(0.00927734375,0,0,0.00927734375,13.72119140625,0)" xlink:href="#aq"/><use transform="matrix(0.00927734375,0,0,0.00927734375,24.2880859375,0)" xlink:href="#aG"/><use transform="matrix(0.00927734375,0,0,0.00927734375,29.56689453125,0)" xlink:href="#aF"/><use transform="matrix(0.00927734375,0,0,0.00927734375,40.1337890625,0)" xlink:href="#al"/><use transform="matrix(0.00927734375,0,0,0.00927734375,50.70068359375,0)" xlink:href="#ao"/></g><path d="M813 20c-458 0-705-273-710-731-5-449 256-722 701-719 323 2 501 105 605 332l-182 54c-76-154-207-229-428-230-335-2-502 220-502 563 0 339 185 576 516 576 185 0 358-63 451-156v-254H843v-160h597v486C1303-77 1082 20 813 20" id="aO"/><path d="M350 384c-71 46-190 48-283 30V279c25 4 53 6 84 6 123 0 227-124 283-290L5-1082h192c109 293 229 581 326 886 105-293 205-591 307-886h190L604 0c-45 115-86 202-125 258s-83 96-129 126" id="aP"/><g id="p"><use transform="matrix(0.00927734375,0,0,0.00927734375,0,0)" xlink:href="#aO"/><use transform="matrix(0.00927734375,0,0,0.00927734375,14.77880859375,0)" xlink:href="#ak"/><use transform="matrix(0.00927734375,0,0,0.00927734375,25.345703125,0)" xlink:href="#ak"/><use transform="matrix(0.00927734375,0,0,0.00927734375,35.91259765625,0)" xlink:href="#ao"/><use transform="matrix(0.00927734375,0,0,0.00927734375,46.4794921875,0)" xlink:href="#aL"/><use transform="matrix(0.00927734375,0,0,0.00927734375,57.04638671875,0)" xlink:href="#aP"/><use transform="matrix(0.00927734375,0,0,0.00927734375,66.54638671875,0)" xlink:href="#aq"/></g><path d="M797-1430c449 5 693 268 698 719 4 394-216 676-567 717 49 144 110 238 276 238 37 0 75-4 115-13v134c-162 40-325 29-427-63-64-58-118-153-159-286C321-10 102-277 97-711c-5-442 260-724 700-719zm-2 1295c338 0 505-227 505-576 0-336-175-563-503-563-332 0-506 222-506 563 0 335 178 576 504 576" id="aQ"/><g id="q"><use transform="matrix(0.00927734375,0,0,0.00927734375,0,0)" xlink:href="#aQ"/><use transform="matrix(0.00927734375,0,0,0.00927734375,14.77880859375,0)" xlink:href="#aN"/></g><path d="M1207-1021c-59-155-207-253-415-253-322-2-494 232-494 563 0 326 186 574 502 574 197 0 346-98 445-293l156 78C1298-131 1096 20 791 20c-448 0-682-279-687-731-5-437 254-721 686-719 309 2 507 125 598 349" id="aR"/><g id="r"><use transform="matrix(0.00927734375,0,0,0.00927734375,0,0)" xlink:href="#aR"/><use transform="matrix(0.00927734375,0,0,0.00927734375,13.72119140625,0)" xlink:href="#ak"/><use transform="matrix(0.00927734375,0,0,0.00927734375,24.2880859375,0)" xlink:href="#ao"/><use transform="matrix(0.00927734375,0,0,0.00927734375,34.85498046875,0)" xlink:href="#aq"/></g><path d="M740-934C689-691 665-619 508 0H300L-3-1082h178c78 327 154 591 226 933 77-315 163-621 243-933h193c78 311 160 619 235 933 72-318 158-621 236-933h176L1174 0H965c-74-312-158-615-225-934" id="aS"/><g id="s"><use transform="matrix(0.00927734375,0,0,0.00927734375,0,0)" xlink:href="#aS"/><use transform="matrix(0.00927734375,0,0,0.00927734375,13.72119140625,0)" xlink:href="#aA"/><use transform="matrix(0.00927734375,0,0,0.00927734375,17.9423828125,0)" xlink:href="#aj"/><use transform="matrix(0.00927734375,0,0,0.00927734375,24.26953125,0)" xlink:href="#ao"/></g><g id="t"><use transform="matrix(0.00927734375,0,0,0.00927734375,0,0)" xlink:href="#aC"/><use transform="matrix(0.00927734375,0,0,0.00927734375,10.56689453125,0)" xlink:href="#al"/><use transform="matrix(0.00927734375,0,0,0.00927734375,21.1337890625,0)" xlink:href="#aB"/><use transform="matrix(0.00927734375,0,0,0.00927734375,31.70068359375,0)" xlink:href="#aq"/><use transform="matrix(0.00927734375,0,0,0.00927734375,42.267578125,0)" xlink:href="#az"/><use transform="matrix(0.00927734375,0,0,0.00927734375,51.767578125,0)" xlink:href="#aq"/><use transform="matrix(0.00927734375,0,0,0.00927734375,62.33447265625,0)" xlink:href="#aA"/><use transform="matrix(0.00927734375,0,0,0.00927734375,66.5556640625,0)" xlink:href="#aB"/><use transform="matrix(0.00927734375,0,0,0.00927734375,77.12255859375,0)" xlink:href="#am"/></g><g id="u"><use transform="matrix(0.00927734375,0,0,0.00927734375,0,0)" xlink:href="#aA"/><use transform="matrix(0.00927734375,0,0,0.00927734375,4.22119140625,0)" xlink:href="#at"/></g><path d="M801 0L510-444 217 0H23l385-556-367-526h199l270 421 268-421h201L612-558 1002 0H801" id="aT"/><g id="v"><use transform="matrix(0.00927734375,0,0,0.00927734375,0,0)" xlink:href="#an"/><use transform="matrix(0.00927734375,0,0,0.00927734375,12.6728515625,0)" xlink:href="#aT"/><use transform="matrix(0.00927734375,0,0,0.00927734375,22.1728515625,0)" xlink:href="#as"/><use transform="matrix(0.00927734375,0,0,0.00927734375,31.6728515625,0)" xlink:href="#aI"/><use transform="matrix(0.00927734375,0,0,0.00927734375,42.23974609375,0)" xlink:href="#aC"/><use transform="matrix(0.00927734375,0,0,0.00927734375,52.806640625,0)" xlink:href="#al"/><use transform="matrix(0.00927734375,0,0,0.00927734375,63.37353515625,0)" xlink:href="#aB"/><use transform="matrix(0.00927734375,0,0,0.00927734375,73.9404296875,0)" xlink:href="#aq"/></g><g id="w"><use transform="matrix(0.00927734375,0,0,0.00927734375,0,0)" xlink:href="#au"/><use transform="matrix(0.00927734375,0,0,0.00927734375,12.6728515625,0)" xlink:href="#as"/><use transform="matrix(0.00927734375,0,0,0.00927734375,22.1728515625,0)" xlink:href="#aj"/><use transform="matrix(0.00927734375,0,0,0.00927734375,28.5,0)" xlink:href="#aq"/><use transform="matrix(0.00927734375,0,0,0.00927734375,39.06689453125,0)" xlink:href="#aq"/><use transform="matrix(0.00927734375,0,0,0.00927734375,49.6337890625,0)" xlink:href="#al"/></g><g id="x"><use transform="matrix(0.00927734375,0,0,0.00927734375,0,0)" xlink:href="#aC"/><use transform="matrix(0.00927734375,0,0,0.00927734375,10.56689453125,0)" xlink:href="#aL"/><use transform="matrix(0.00927734375,0,0,0.00927734375,21.1337890625,0)" xlink:href="#aB"/><use transform="matrix(0.00927734375,0,0,0.00927734375,31.70068359375,0)" xlink:href="#aq"/><use transform="matrix(0.00927734375,0,0,0.00927734375,42.267578125,0)" xlink:href="#az"/><use transform="matrix(0.00927734375,0,0,0.00927734375,51.767578125,0)" xlink:href="#aq"/><use transform="matrix(0.00927734375,0,0,0.00927734375,62.33447265625,0)" xlink:href="#aA"/><use transform="matrix(0.00927734375,0,0,0.00927734375,66.5556640625,0)" xlink:href="#aB"/><use transform="matrix(0.00927734375,0,0,0.00927734375,77.12255859375,0)" xlink:href="#am"/></g><g id="y"><use transform="matrix(0.00927734375,0,0,0.00927734375,0,0)" xlink:href="#aE"/><use transform="matrix(0.00927734375,0,0,0.00927734375,12.6728515625,0)" xlink:href="#aC"/><use transform="matrix(0.00927734375,0,0,0.00927734375,23.23974609375,0)" xlink:href="#as"/><use transform="matrix(0.00927734375,0,0,0.00927734375,32.73974609375,0)" xlink:href="#aM"/><use transform="matrix(0.00927734375,0,0,0.00927734375,42.23974609375,0)" xlink:href="#an"/><use transform="matrix(0.00927734375,0,0,0.00927734375,54.91259765625,0)" xlink:href="#al"/><use transform="matrix(0.00927734375,0,0,0.00927734375,65.4794921875,0)" xlink:href="#ao"/></g><g id="z"><use transform="matrix(0.00927734375,0,0,0.00927734375,0,0)" xlink:href="#ai"/><use transform="matrix(0.00927734375,0,0,0.00927734375,11.60595703125,0)" xlink:href="#ak"/><use transform="matrix(0.00927734375,0,0,0.00927734375,22.1728515625,0)" xlink:href="#aj"/><use transform="matrix(0.00927734375,0,0,0.00927734375,28.5,0)" xlink:href="#ao"/><use transform="matrix(0.00927734375,0,0,0.00927734375,39.06689453125,0)" xlink:href="#aq"/><use transform="matrix(0.00927734375,0,0,0.00927734375,49.6337890625,0)" xlink:href="#aj"/><use transform="matrix(0.00927734375,0,0,0.00927734375,55.9609375,0)" xlink:href="#aq"/></g><g id="A"><use transform="matrix(0.00927734375,0,0,0.00927734375,0,0)" xlink:href="#al"/><use transform="matrix(0.00927734375,0,0,0.00927734375,10.56689453125,0)" xlink:href="#aq"/><use transform="matrix(0.00927734375,0,0,0.00927734375,21.1337890625,0)" xlink:href="#aF"/><use transform="matrix(0.00927734375,0,0,0.00927734375,31.70068359375,0)" xlink:href="#aq"/></g><g id="B"><use transform="matrix(0.00927734375,0,0,0.00927734375,0,0)" xlink:href="#ar"/><use transform="matrix(0.00927734375,0,0,0.00927734375,4.22119140625,0)" xlink:href="#al"/><use transform="matrix(0.00927734375,0,0,0.00927734375,14.7880859375,0)" xlink:href="#aF"/><use transform="matrix(0.00927734375,0,0,0.00927734375,25.35498046875,0)" xlink:href="#aj"/><use transform="matrix(0.00927734375,0,0,0.00927734375,31.68212890625,0)" xlink:href="#ar"/><use transform="matrix(0.00927734375,0,0,0.00927734375,35.9033203125,0)" xlink:href="#aS"/></g><g id="C"><use transform="matrix(0.00927734375,0,0,0.00927734375,0,0)" xlink:href="#aC"/><use transform="matrix(0.00927734375,0,0,0.00927734375,10.56689453125,0)" xlink:href="#al"/></g><g id="D"><use transform="matrix(0.00927734375,0,0,0.00927734375,0,0)" xlink:href="#aq"/><use transform="matrix(0.00927734375,0,0,0.00927734375,10.56689453125,0)" xlink:href="#aj"/><use transform="matrix(0.00927734375,0,0,0.00927734375,16.89404296875,0)" xlink:href="#aD"/><use transform="matrix(0.00927734375,0,0,0.00927734375,26.39404296875,0)" xlink:href="#am"/><use transform="matrix(0.00927734375,0,0,0.00927734375,31.6728515625,0)" xlink:href="#aq"/><use transform="matrix(0.00927734375,0,0,0.00927734375,42.23974609375,0)" xlink:href="#ar"/><use transform="matrix(0.00927734375,0,0,0.00927734375,46.4609375,0)" xlink:href="#ar"/><use transform="matrix(0.00927734375,0,0,0.00927734375,50.68212890625,0)" xlink:href="#aq"/></g><g id="E"><use transform="matrix(0.00927734375,0,0,0.00927734375,0,0)" xlink:href="#ar"/><use transform="matrix(0.00927734375,0,0,0.00927734375,4.22119140625,0)" xlink:href="#al"/><use transform="matrix(0.00927734375,0,0,0.00927734375,14.7880859375,0)" xlink:href="#aF"/><use transform="matrix(0.00927734375,0,0,0.00927734375,25.35498046875,0)" xlink:href="#aj"/><use transform="matrix(0.00927734375,0,0,0.00927734375,31.68212890625,0)" xlink:href="#ar"/><use transform="matrix(0.00927734375,0,0,0.00927734375,35.9033203125,0)" xlink:href="#aS"/></g><g id="F"><use transform="matrix(0.00927734375,0,0,0.00927734375,0,0)" xlink:href="#ar"/><use transform="matrix(0.00927734375,0,0,0.00927734375,4.22119140625,0)" xlink:href="#aA"/><use transform="matrix(0.00927734375,0,0,0.00927734375,8.4423828125,0)" xlink:href="#al"/><use transform="matrix(0.00927734375,0,0,0.00927734375,19.00927734375,0)" xlink:href="#aM"/></g><g id="G"><use transform="matrix(0.00927734375,0,0,0.00927734375,0,0)" xlink:href="#at"/><use transform="matrix(0.00927734375,0,0,0.00927734375,15.8271484375,0)" xlink:href="#aA"/><use transform="matrix(0.00927734375,0,0,0.00927734375,20.04833984375,0)" xlink:href="#am"/></g><path d="M761-1409c296-3 496 141 497 424 1 274-202 436-485 436H359V0H168v-1409h593zm305 426c0-182-109-273-328-273H359v556h387c213 0 320-94 320-283" id="aU"/><path d="M189 0v-1409h191V0H189" id="aV"/><g id="H"><use transform="matrix(0.00927734375,0,0,0.00927734375,0,0)" xlink:href="#av"/><use transform="matrix(0.00927734375,0,0,0.00927734375,12.6728515625,0)" xlink:href="#aU"/><use transform="matrix(0.00927734375,0,0,0.00927734375,25.345703125,0)" xlink:href="#aV"/></g><g id="I"><use transform="matrix(0.00927734375,0,0,0.00927734375,0,0)" xlink:href="#av"/><use transform="matrix(0.00927734375,0,0,0.00927734375,12.6728515625,0)" xlink:href="#aL"/><use transform="matrix(0.00927734375,0,0,0.00927734375,23.23974609375,0)" xlink:href="#aG"/><use transform="matrix(0.00927734375,0,0,0.00927734375,28.5185546875,0)" xlink:href="#aj"/><use transform="matrix(0.00927734375,0,0,0.00927734375,34.845703125,0)" xlink:href="#aC"/><use transform="matrix(0.00927734375,0,0,0.00927734375,45.41259765625,0)" xlink:href="#aB"/><use transform="matrix(0.00927734375,0,0,0.00927734375,55.9794921875,0)" xlink:href="#aq"/></g><g id="J"><use transform="matrix(0.00927734375,0,0,0.00927734375,0,0)" xlink:href="#aS"/><use transform="matrix(0.00927734375,0,0,0.00927734375,13.72119140625,0)" xlink:href="#aA"/><use transform="matrix(0.00927734375,0,0,0.00927734375,17.9423828125,0)" xlink:href="#aj"/><use transform="matrix(0.00927734375,0,0,0.00927734375,24.26953125,0)" xlink:href="#ao"/></g><g id="K"><use transform="matrix(0.00927734375,0,0,0.00927734375,0,0)" xlink:href="#aq"/><use transform="matrix(0.00927734375,0,0,0.00927734375,10.56689453125,0)" xlink:href="#aj"/><use transform="matrix(0.00927734375,0,0,0.00927734375,16.89404296875,0)" xlink:href="#aD"/><use transform="matrix(0.00927734375,0,0,0.00927734375,26.39404296875,0)" xlink:href="#am"/><use transform="matrix(0.00927734375,0,0,0.00927734375,31.6728515625,0)" xlink:href="#aq"/><use transform="matrix(0.00927734375,0,0,0.00927734375,42.23974609375,0)" xlink:href="#ar"/><use transform="matrix(0.00927734375,0,0,0.00927734375,46.4609375,0)" xlink:href="#ar"/><use transform="matrix(0.00927734375,0,0,0.00927734375,50.68212890625,0)" xlink:href="#am"/></g><g id="L"><use transform="matrix(0.00927734375,0,0,0.00927734375,0,0)" xlink:href="#aE"/><use transform="matrix(0.00927734375,0,0,0.00927734375,12.6728515625,0)" xlink:href="#aC"/><use transform="matrix(0.00927734375,0,0,0.00927734375,23.23974609375,0)" xlink:href="#ar"/><use transform="matrix(0.00927734375,0,0,0.00927734375,27.4609375,0)" xlink:href="#aC"/><use transform="matrix(0.00927734375,0,0,0.00927734375,38.02783203125,0)" xlink:href="#al"/><use transform="matrix(0.00927734375,0,0,0.00927734375,48.5947265625,0)" xlink:href="#as"/><use transform="matrix(0.00927734375,0,0,0.00927734375,58.0947265625,0)" xlink:href="#aq"/></g><g id="M"><use transform="matrix(0.00927734375,0,0,0.00927734375,0,0)" xlink:href="#aC"/><use transform="matrix(0.00927734375,0,0,0.00927734375,10.56689453125,0)" xlink:href="#aF"/><use transform="matrix(0.00927734375,0,0,0.00927734375,21.1337890625,0)" xlink:href="#aD"/><use transform="matrix(0.00927734375,0,0,0.00927734375,30.6337890625,0)" xlink:href="#aj"/><use transform="matrix(0.00927734375,0,0,0.00927734375,36.9609375,0)" xlink:href="#aq"/><use transform="matrix(0.00927734375,0,0,0.00927734375,47.52783203125,0)" xlink:href="#aA"/><use transform="matrix(0.00927734375,0,0,0.00927734375,51.7490234375,0)" xlink:href="#as"/><use transform="matrix(0.00927734375,0,0,0.00927734375,61.2490234375,0)" xlink:href="#aI"/><use transform="matrix(0.00927734375,0,0,0.00927734375,71.81591796875,0)" xlink:href="#aq"/><use transform="matrix(0.00927734375,0,0,0.00927734375,82.3828125,0)" xlink:href="#al"/><use transform="matrix(0.00927734375,0,0,0.00927734375,92.94970703125,0)" xlink:href="#ao"/></g><path d="M853-1530v-184h163v184H853zm-394 0v-184h165v184H459zm862 1000c-7 359-228 550-590 550-350 0-573-184-573-532v-897h191v881c-2 253 132 393 381 393 255 0 401-146 401-406v-868h190v879" id="aW"/><path d="M320-908c63-128 152-193 335-193 133 0 233 45 299 134s99 230 99 421c0 377-133 566-398 566-167 0-279-63-336-188h-5c8 141 2 428 4 593H138V-861c0-111-2-185-6-221h174c5 33 9 134 10 174h4zm-2 380c0 254 57 415 289 415 89 0 149-37 195-99 76-105 79-547 1-653-45-62-105-97-194-97-243 1-291 184-291 434" id="aX"/><path d="M385-51c0 144-24 223-78 313H184c63-91 94-178 94-262h-88v-219h195v168" id="aY"/><g id="N"><use transform="matrix(0.00927734375,0,0,0.00927734375,0,0)" xlink:href="#aW"/><use transform="matrix(0.00927734375,0,0,0.00927734375,13.72119140625,0)" xlink:href="#aL"/><use transform="matrix(0.00927734375,0,0,0.00927734375,24.2880859375,0)" xlink:href="#aq"/><use transform="matrix(0.00927734375,0,0,0.00927734375,34.85498046875,0)" xlink:href="#aj"/><use transform="matrix(0.00927734375,0,0,0.00927734375,41.18212890625,0)" xlink:href="#aX"/><use transform="matrix(0.00927734375,0,0,0.00927734375,51.7490234375,0)" xlink:href="#aj"/><use transform="matrix(0.00927734375,0,0,0.00927734375,58.076171875,0)" xlink:href="#aH"/><use transform="matrix(0.00927734375,0,0,0.00927734375,68.64306640625,0)" xlink:href="#aG"/><use transform="matrix(0.00927734375,0,0,0.00927734375,73.921875,0)" xlink:href="#aq"/><use transform="matrix(0.00927734375,0,0,0.00927734375,84.48876953125,0)" xlink:href="#aY"/></g><g id="O"><use transform="matrix(0.00927734375,0,0,0.00927734375,0,0)" xlink:href="#ak"/><use transform="matrix(0.00927734375,0,0,0.00927734375,10.56689453125,0)" xlink:href="#aL"/></g><g id="P"><use transform="matrix(0.00927734375,0,0,0.00927734375,0,0)" xlink:href="#aS"/><use transform="matrix(0.00927734375,0,0,0.00927734375,13.72119140625,0)" xlink:href="#aA"/><use transform="matrix(0.00927734375,0,0,0.00927734375,17.9423828125,0)" xlink:href="#am"/><use transform="matrix(0.00927734375,0,0,0.00927734375,23.22119140625,0)" xlink:href="#aI"/><use transform="matrix(0.00927734375,0,0,0.00927734375,33.7880859375,0)" xlink:href="#ao"/><use transform="matrix(0.00927734375,0,0,0.00927734375,44.35498046875,0)" xlink:href="#aj"/><use transform="matrix(0.00927734375,0,0,0.00927734375,50.68212890625,0)" xlink:href="#aC"/><use transform="matrix(0.00927734375,0,0,0.00927734375,61.2490234375,0)" xlink:href="#aS"/></g><g id="Q"><use transform="matrix(0.00927734375,0,0,0.00927734375,0,0)" xlink:href="#ao"/><use transform="matrix(0.00927734375,0,0,0.00927734375,10.56689453125,0)" xlink:href="#aF"/><use transform="matrix(0.00927734375,0,0,0.00927734375,21.1337890625,0)" xlink:href="#aj"/><use transform="matrix(0.00927734375,0,0,0.00927734375,27.4609375,0)" xlink:href="#as"/><use transform="matrix(0.00927734375,0,0,0.00927734375,36.9609375,0)" xlink:href="#aI"/><use transform="matrix(0.00927734375,0,0,0.00927734375,47.52783203125,0)" xlink:href="#aB"/><use transform="matrix(0.00927734375,0,0,0.00927734375,58.0947265625,0)" xlink:href="#aq"/><use transform="matrix(0.00927734375,0,0,0.00927734375,68.66162109375,0)" xlink:href="#aG"/><use transform="matrix(0.00927734375,0,0,0.00927734375,73.9404296875,0)" xlink:href="#aH"/><use transform="matrix(0.00927734375,0,0,0.00927734375,84.50732421875,0)" xlink:href="#aI"/><use transform="matrix(0.00927734375,0,0,0.00927734375,95.07421875,0)" xlink:href="#aj"/><use transform="matrix(0.00927734375,0,0,0.00927734375,101.4013671875,0)" xlink:href="#am"/></g><g id="R"><use transform="matrix(0.00927734375,0,0,0.00927734375,0,0)" xlink:href="#aS"/><use transform="matrix(0.00927734375,0,0,0.00927734375,13.72119140625,0)" xlink:href="#aF"/><use transform="matrix(0.00927734375,0,0,0.00927734375,24.2880859375,0)" xlink:href="#aj"/><use transform="matrix(0.00927734375,0,0,0.00927734375,30.615234375,0)" xlink:href="#ao"/><use transform="matrix(0.00927734375,0,0,0.00927734375,41.18212890625,0)" xlink:href="#aq"/></g><path d="M117-194c89-4 53 116 60 194h-32v-121c0-31-8-49-39-48C34-167 62-67 57 0H25l-1-190h30c1 10-1 24 2 32 11-22 29-35 61-36" id="aZ"/><path d="M100-194c63 0 86 42 84 106H49c0 40 14 67 53 68 26 1 43-12 49-29l28 8c-11 28-37 45-77 45C44 4 14-33 15-96c1-61 26-98 85-98zm52 81c6-60-76-77-97-28-3 7-6 17-6 28h103" id="ba"/><path d="M24-231v-30h32v30H24zM24 0v-190h32V0H24" id="bb"/><g id="S"><use transform="matrix(0.05,0,0,0.05,0,0)" xlink:href="#aZ"/><use transform="matrix(0.05,0,0,0.05,10,0)" xlink:href="#ba"/><use transform="matrix(0.05,0,0,0.05,20,0)" xlink:href="#bb"/><use transform="matrix(0.05,0,0,0.05,23.95,0)" xlink:href="#aZ"/></g><g id="T"><use transform="matrix(0.00927734375,0,0,0.00927734375,0,0)" xlink:href="#aB"/><use transform="matrix(0.00927734375,0,0,0.00927734375,10.56689453125,0)" xlink:href="#aq"/><use transform="matrix(0.00927734375,0,0,0.00927734375,21.1337890625,0)" xlink:href="#am"/></g><g id="U"><use transform="matrix(0.00927734375,0,0,0.00927734375,0,0)" xlink:href="#aE"/><use transform="matrix(0.00927734375,0,0,0.00927734375,12.6728515625,0)" xlink:href="#aA"/><use transform="matrix(0.00927734375,0,0,0.00927734375,16.89404296875,0)" xlink:href="#am"/><use transform="matrix(0.00927734375,0,0,0.00927734375,22.1728515625,0)" xlink:href="#as"/><use transform="matrix(0.00927734375,0,0,0.00927734375,31.6728515625,0)" xlink:href="#ak"/><use transform="matrix(0.00927734375,0,0,0.00927734375,42.23974609375,0)" xlink:href="#aA"/><use transform="matrix(0.00927734375,0,0,0.00927734375,46.4609375,0)" xlink:href="#al"/></g><g id="V"><use transform="matrix(0.00927734375,0,0,0.00927734375,0,0)" xlink:href="#aU"/><use transform="matrix(0.00927734375,0,0,0.00927734375,12.6728515625,0)" xlink:href="#aj"/><use transform="matrix(0.00927734375,0,0,0.00927734375,19,0)" xlink:href="#aA"/><use transform="matrix(0.00927734375,0,0,0.00927734375,23.22119140625,0)" xlink:href="#as"/><use transform="matrix(0.00927734375,0,0,0.00927734375,32.72119140625,0)" xlink:href="#aq"/></g><path d="M613 0H400L7-1082h192c109 337 207 579 307 941 97-323 214-627 320-941h191" id="bc"/><g id="W"><use transform="matrix(0.00927734375,0,0,0.00927734375,0,0)" xlink:href="#bc"/><use transform="matrix(0.00927734375,0,0,0.00927734375,9.5,0)" xlink:href="#ak"/><use transform="matrix(0.00927734375,0,0,0.00927734375,20.06689453125,0)" xlink:href="#al"/></g><g id="X"><use transform="matrix(0.00927734375,0,0,0.00927734375,0,0)" xlink:href="#av"/><use transform="matrix(0.00927734375,0,0,0.00927734375,12.6728515625,0)" xlink:href="#aU"/><use transform="matrix(0.00927734375,0,0,0.00927734375,25.345703125,0)" xlink:href="#aV"/></g><g id="Y"><use transform="matrix(0.00927734375,0,0,0.00927734375,0,0)" xlink:href="#ax"/><use transform="matrix(0.00927734375,0,0,0.00927734375,15.8271484375,0)" xlink:href="#aH"/><use transform="matrix(0.00927734375,0,0,0.00927734375,26.39404296875,0)" xlink:href="#al"/><use transform="matrix(0.00927734375,0,0,0.00927734375,36.9609375,0)" xlink:href="#az"/><use transform="matrix(0.00927734375,0,0,0.00927734375,46.4609375,0)" xlink:href="#aq"/><use transform="matrix(0.00927734375,0,0,0.00927734375,57.02783203125,0)" xlink:href="#aA"/><use transform="matrix(0.00927734375,0,0,0.00927734375,61.2490234375,0)" xlink:href="#al"/><use transform="matrix(0.00927734375,0,0,0.00927734375,71.81591796875,0)" xlink:href="#aB"/><use transform="matrix(0.00927734375,0,0,0.00927734375,82.3828125,0)" xlink:href="#aC"/><use transform="matrix(0.00927734375,0,0,0.00927734375,92.94970703125,0)" xlink:href="#aL"/><use transform="matrix(0.00927734375,0,0,0.00927734375,103.5166015625,0)" xlink:href="#aq"/></g><g id="Z"><use transform="matrix(0.00927734375,0,0,0.00927734375,0,0)" xlink:href="#aA"/><use transform="matrix(0.00927734375,0,0,0.00927734375,4.22119140625,0)" xlink:href="#al"/></g><g id="aa"><use transform="matrix(0.00927734375,0,0,0.00927734375,0,0)" xlink:href="#aD"/><use transform="matrix(0.00927734375,0,0,0.00927734375,9.5,0)" xlink:href="#aC"/><use transform="matrix(0.00927734375,0,0,0.00927734375,20.06689453125,0)" xlink:href="#am"/><use transform="matrix(0.00927734375,0,0,0.00927734375,25.345703125,0)" xlink:href="#aD"/></g><g id="ab"><use transform="matrix(0.00927734375,0,0,0.00927734375,0,0)" xlink:href="#aF"/><use transform="matrix(0.00927734375,0,0,0.00927734375,10.56689453125,0)" xlink:href="#at"/><use transform="matrix(0.00927734375,0,0,0.00927734375,26.39404296875,0)" xlink:href="#aj"/><use transform="matrix(0.00927734375,0,0,0.00927734375,32.72119140625,0)" xlink:href="#aq"/><use transform="matrix(0.00927734375,0,0,0.00927734375,43.2880859375,0)" xlink:href="#as"/><use transform="matrix(0.00927734375,0,0,0.00927734375,52.7880859375,0)" xlink:href="#aI"/><use transform="matrix(0.00927734375,0,0,0.00927734375,63.35498046875,0)" xlink:href="#aq"/><use transform="matrix(0.00927734375,0,0,0.00927734375,73.921875,0)" xlink:href="#al"/></g><g id="ac"><use transform="matrix(0.00927734375,0,0,0.00927734375,0,0)" xlink:href="#ap"/><use transform="matrix(0.00927734375,0,0,0.00927734375,17.22802734375,0)" xlink:href="#aC"/><use transform="matrix(0.00927734375,0,0,0.00927734375,27.794921875,0)" xlink:href="#aj"/><use transform="matrix(0.00927734375,0,0,0.00927734375,34.1220703125,0)" xlink:href="#am"/><use transform="matrix(0.00927734375,0,0,0.00927734375,39.40087890625,0)" xlink:href="#aq"/><use transform="matrix(0.00927734375,0,0,0.00927734375,49.9677734375,0)" xlink:href="#al"/></g><g id="ad"><use transform="matrix(0.00927734375,0,0,0.00927734375,0,0)" xlink:href="#aC"/><use transform="matrix(0.00927734375,0,0,0.00927734375,10.56689453125,0)" xlink:href="#aF"/><use transform="matrix(0.00927734375,0,0,0.00927734375,21.1337890625,0)" xlink:href="#aG"/></g><g id="ae"><use transform="matrix(0.00927734375,0,0,0.00927734375,0,0)" xlink:href="#aS"/><use transform="matrix(0.00927734375,0,0,0.00927734375,13.72119140625,0)" xlink:href="#aq"/><use transform="matrix(0.00927734375,0,0,0.00927734375,24.2880859375,0)" xlink:href="#aA"/><use transform="matrix(0.00927734375,0,0,0.00927734375,28.50927734375,0)" xlink:href="#am"/><use transform="matrix(0.00927734375,0,0,0.00927734375,33.7880859375,0)" xlink:href="#aq"/><use transform="matrix(0.00927734375,0,0,0.00927734375,44.35498046875,0)" xlink:href="#aj"/><use transform="matrix(0.00927734375,0,0,0.00927734375,50.68212890625,0)" xlink:href="#aq"/></g><path d="M187 0v-219h195V0H187" id="bd"/><g id="af"><use transform="matrix(0.00927734375,0,0,0.00927734375,0,0)" xlink:href="#ax"/><use transform="matrix(0.00927734375,0,0,0.00927734375,15.8271484375,0)" xlink:href="#aH"/><use transform="matrix(0.00927734375,0,0,0.00927734375,26.39404296875,0)" xlink:href="#al"/><use transform="matrix(0.00927734375,0,0,0.00927734375,36.9609375,0)" xlink:href="#az"/><use transform="matrix(0.00927734375,0,0,0.00927734375,46.4609375,0)" xlink:href="#aq"/><use transform="matrix(0.00927734375,0,0,0.00927734375,57.02783203125,0)" xlink:href="#aA"/><use transform="matrix(0.00927734375,0,0,0.00927734375,61.2490234375,0)" xlink:href="#al"/><use transform="matrix(0.00927734375,0,0,0.00927734375,71.81591796875,0)" xlink:href="#aB"/><use transform="matrix(0.00927734375,0,0,0.00927734375,82.3828125,0)" xlink:href="#aC"/><use transform="matrix(0.00927734375,0,0,0.00927734375,92.94970703125,0)" xlink:href="#aL"/><use transform="matrix(0.00927734375,0,0,0.00927734375,103.5166015625,0)" xlink:href="#aq"/><use transform="matrix(0.00927734375,0,0,0.00927734375,114.08349609375,0)" xlink:href="#bd"/></g><g id="ag"><use transform="matrix(0.00927734375,0,0,0.00927734375,0,0)" xlink:href="#ax"/><use transform="matrix(0.00927734375,0,0,0.00927734375,15.8271484375,0)" xlink:href="#aH"/><use transform="matrix(0.00927734375,0,0,0.00927734375,26.39404296875,0)" xlink:href="#al"/><use transform="matrix(0.00927734375,0,0,0.00927734375,36.9609375,0)" xlink:href="#az"/><use transform="matrix(0.00927734375,0,0,0.00927734375,46.4609375,0)" xlink:href="#aq"/><use transform="matrix(0.00927734375,0,0,0.00927734375,57.02783203125,0)" xlink:href="#aA"/><use transform="matrix(0.00927734375,0,0,0.00927734375,61.2490234375,0)" xlink:href="#al"/><use transform="matrix(0.00927734375,0,0,0.00927734375,71.81591796875,0)" xlink:href="#aB"/><use transform="matrix(0.00927734375,0,0,0.00927734375,82.3828125,0)" xlink:href="#aC"/><use transform="matrix(0.00927734375,0,0,0.00927734375,92.94970703125,0)" xlink:href="#aL"/><use transform="matrix(0.00927734375,0,0,0.00927734375,103.5166015625,0)" xlink:href="#aq"/></g><g id="ah"><use transform="matrix(0.00927734375,0,0,0.00927734375,0,0)" xlink:href="#aG"/><use transform="matrix(0.00927734375,0,0,0.00927734375,5.27880859375,0)" xlink:href="#aq"/><use transform="matrix(0.00927734375,0,0,0.00927734375,15.845703125,0)" xlink:href="#aD"/><use transform="matrix(0.00927734375,0,0,0.00927734375,25.345703125,0)" xlink:href="#am"/><use transform="matrix(0.00927734375,0,0,0.00927734375,30.62451171875,0)" xlink:href="#aB"/><use transform="matrix(0.00927734375,0,0,0.00927734375,41.19140625,0)" xlink:href="#aq"/><use transform="matrix(0.00927734375,0,0,0.00927734375,51.75830078125,0)" xlink:href="#aD"/><use transform="matrix(0.00927734375,0,0,0.00927734375,61.25830078125,0)" xlink:href="#am"/><use transform="matrix(0.00927734375,0,0,0.00927734375,66.537109375,0)" xlink:href="#aq"/><use transform="matrix(0.00927734375,0,0,0.00927734375,77.10400390625,0)" xlink:href="#ar"/><use transform="matrix(0.00927734375,0,0,0.00927734375,81.3251953125,0)" xlink:href="#ar"/><use transform="matrix(0.00927734375,0,0,0.00927734375,85.54638671875,0)" xlink:href="#am"/></g></defs></g></svg>